<svg width="40" height="40" viewBox="0 0 40 40" fill="none" xmlns="http://www.w3.org/2000/svg">
<rect width="40" height="40" rx="8" fill="white"/>
<rect x="6" y="22" width="12" height="12" rx="2" fill="#0360DB"/>
<rect x="6" y="22" width="12" height="12" rx="2" fill="white" fill-opacity="0.8"/>
<rect x="22" y="6" width="12" height="12" rx="2" fill="#0360DB"/>
<rect x="22" y="6" width="12" height="12" rx="2" fill="white" fill-opacity="0.8"/>
<path d="M25.4444 13.7777H14.5556C13.6964 13.7777 13 14.4852 13 15.358V26.4197C13 27.2924 13.6964 27.9999 14.5556 27.9999H25.4444C26.3036 27.9999 27 27.2924 27 26.4197V15.358C27 14.4852 26.3036 13.7777 25.4444 13.7777Z" stroke="#0360DB" stroke-width="1.25" stroke-linecap="round" stroke-linejoin="round"/>
<path d="M23.5 12V15.5556" stroke="#0360DB" stroke-width="1.25" stroke-linecap="round" stroke-linejoin="round"/>
<path d="M16.5 12V15.5556" stroke="#0360DB" stroke-width="1.25" stroke-linecap="round" stroke-linejoin="round"/>
<path d="M13 18.2223H27" stroke="#0360DB" stroke-width="1.25" stroke-linecap="round" stroke-linejoin="round"/>
</svg>
