<svg width="40" height="40" viewBox="0 0 40 40" fill="none" xmlns="http://www.w3.org/2000/svg">
<rect width="40" height="40" rx="8" fill="#0360DB"/>
<rect width="40" height="40" rx="8" fill="white" fill-opacity="0.95"/>
<path d="M19.3035 14.5613C19.7055 14.2554 20.2688 14.2554 20.6708 14.5613C22.6947 16.1019 25.1578 16.9603 27.7026 17.0102C28.1632 17.0193 28.5829 17.31 28.6837 17.7595C28.9774 19.0696 29.0495 20.4217 28.8953 21.7592C28.711 23.3569 28.2075 24.9013 27.4145 26.3005C26.6216 27.6998 25.5555 28.9254 24.2796 29.9045C23.0723 30.8309 21.7004 31.5188 20.2375 31.9322C20.0738 31.9784 19.9005 31.9784 19.7368 31.9322C18.2738 31.5188 16.902 30.8309 15.6947 29.9045C14.4187 28.9254 13.3526 27.6998 12.5597 26.3005C11.7668 24.9013 11.2633 23.3569 11.079 21.7592C10.9248 20.4217 10.9969 19.0696 11.2906 17.7595C11.3914 17.31 11.8111 17.0193 12.2717 17.0102C14.8165 16.9603 17.2795 16.1019 19.3035 14.5613Z" fill="#0360DB"/>
<path d="M19.3035 14.5613C19.7055 14.2554 20.2688 14.2554 20.6708 14.5613C22.6947 16.1019 25.1578 16.9603 27.7026 17.0102C28.1632 17.0193 28.5829 17.31 28.6837 17.7595C28.9774 19.0696 29.0495 20.4217 28.8953 21.7592C28.711 23.3569 28.2075 24.9013 27.4145 26.3005C26.6216 27.6998 25.5555 28.9254 24.2796 29.9045C23.0723 30.8309 21.7004 31.5188 20.2375 31.9322C20.0738 31.9784 19.9005 31.9784 19.7368 31.9322C18.2738 31.5188 16.902 30.8309 15.6947 29.9045C14.4187 28.9254 13.3526 27.6998 12.5597 26.3005C11.7668 24.9013 11.2633 23.3569 11.079 21.7592C10.9248 20.4217 10.9969 19.0696 11.2906 17.7595C11.3914 17.31 11.8111 17.0193 12.2717 17.0102C14.8165 16.9603 17.2795 16.1019 19.3035 14.5613Z" fill="white" fill-opacity="0.8"/>
<path d="M17 20L19 22L23 18" stroke="#0360DB" stroke-width="1.25" stroke-linecap="round" stroke-linejoin="round"/>
<path d="M20.0001 11C22.3359 13.0666 25.3846 14.1426 28.5001 14C28.9537 15.543 29.0925 17.1615 28.9082 18.7592C28.7239 20.3569 28.2204 21.9013 27.4275 23.3005C26.6346 24.6998 25.5685 25.9254 24.2925 26.9045C23.0166 27.8836 21.5569 28.5962 20.0001 29C18.4433 28.5962 16.9836 27.8836 15.7076 26.9045C14.4317 25.9254 13.3656 24.6998 12.5727 23.3005C11.7798 21.9013 11.2762 20.3569 11.092 18.7592C10.9077 17.1615 11.0465 15.543 11.5001 14C14.6156 14.1426 17.6642 13.0666 20.0001 11" stroke="#0360DB" stroke-width="1.25" stroke-linecap="round" stroke-linejoin="round"/>
</svg>
