<svg width="56" height="56" viewBox="0 0 56 56" fill="none" xmlns="http://www.w3.org/2000/svg">
<g filter="url(#filter0_d_3508_4294)">
<rect x="6" y="6" width="40" height="40" rx="8" fill="white"/>
</g>
<rect x="11" y="36" width="9" height="6" rx="2" fill="#0360DB"/>
<rect x="11" y="36" width="9" height="6" rx="2" fill="white" fill-opacity="0.8"/>
<rect x="28" y="23" width="9" height="6" rx="2" fill="#0360DB"/>
<rect x="28" y="23" width="9" height="6" rx="2" fill="white" fill-opacity="0.8"/>
<path d="M17.5 31.5C19.1569 31.5 20.5 30.1569 20.5 28.5C20.5 26.8431 19.1569 25.5 17.5 25.5C15.8431 25.5 14.5 26.8431 14.5 28.5C14.5 30.1569 15.8431 31.5 17.5 31.5Z" stroke="#0360DB" stroke-width="1.25" stroke-linecap="round" stroke-linejoin="round"/>
<path d="M13 39V37.5C13 36.7044 13.3161 35.9413 13.8787 35.3787C14.4413 34.8161 15.2044 34.5 16 34.5H19C19.7956 34.5 20.5587 34.8161 21.1213 35.3787C21.6839 35.9413 22 36.7044 22 37.5V39" stroke="#0360DB" stroke-width="1.25" stroke-linecap="round" stroke-linejoin="round"/>
<path d="M34.5 19C36.1569 19 37.5 17.6569 37.5 16C37.5 14.3431 36.1569 13 34.5 13C32.8431 13 31.5 14.3431 31.5 16C31.5 17.6569 32.8431 19 34.5 19Z" stroke="#0360DB" stroke-width="1.25" stroke-linecap="round" stroke-linejoin="round"/>
<path d="M30 26.5V25C30 24.2044 30.3161 23.4413 30.8787 22.8787C31.4413 22.3161 32.2044 22 33 22H36C36.7956 22 37.5587 22.3161 38.1213 22.8787C38.6839 23.4413 39 24.2044 39 25V26.5" stroke="#0360DB" stroke-width="1.25" stroke-linecap="round" stroke-linejoin="round"/>
<path d="M22.3333 17.4667L24.0666 15.7333L22.3333 14" stroke="#0360DB" stroke-width="1.25" stroke-linecap="round" stroke-linejoin="round"/>
<path d="M18 20.5001C18 19.2359 18.5022 18.0235 19.3961 17.1295C20.2901 16.2356 21.5025 15.7334 22.7667 15.7334H24.0667" stroke="#0360DB" stroke-width="1.25" stroke-linecap="round" stroke-linejoin="round"/>
<path d="M30.7334 35.0333L29.0001 36.7667L30.7334 38.5" stroke="#0360DB" stroke-width="1.25" stroke-linecap="round" stroke-linejoin="round"/>
<path d="M35.0667 31.9999C35.0667 33.2641 34.5644 34.4765 33.6705 35.3705C32.7766 36.2644 31.5642 36.7666 30.3 36.7666H29" stroke="#0360DB" stroke-width="1.25" stroke-linecap="round" stroke-linejoin="round"/>
<defs>
<filter id="filter0_d_3508_4294" x="0" y="0" width="56" height="56" filterUnits="userSpaceOnUse" color-interpolation-filters="sRGB">
<feFlood flood-opacity="0" result="BackgroundImageFix"/>
<feColorMatrix in="SourceAlpha" type="matrix" values="0 0 0 0 0 0 0 0 0 0 0 0 0 0 0 0 0 0 127 0" result="hardAlpha"/>
<feOffset dx="2" dy="2"/>
<feGaussianBlur stdDeviation="4"/>
<feColorMatrix type="matrix" values="0 0 0 0 0.307543 0 0 0 0 0.307543 0 0 0 0 0.361621 0 0 0 0.08 0"/>
<feBlend mode="normal" in2="BackgroundImageFix" result="effect1_dropShadow_3508_4294"/>
<feBlend mode="normal" in="SourceGraphic" in2="effect1_dropShadow_3508_4294" result="shape"/>
</filter>
</defs>
</svg>
