<svg width="20" height="24" viewBox="0 0 20 24" fill="none" xmlns="http://www.w3.org/2000/svg">
<path d="M12.8571 11.1666H7.14286C6.51167 11.1666 6 11.689 6 12.3333L6 15.8333C6 16.4776 6.51167 17 7.14286 17H12.8571C13.4883 17 14 16.4776 14 15.8333L14 12.3333C14 11.689 13.4883 11.1666 12.8571 11.1666Z" stroke="#FC4C16" stroke-width="1.25" stroke-linecap="round" stroke-linejoin="round"/>
<path d="M8 11V9C8 8.46957 8.21071 7.96086 8.58579 7.58579C8.96086 7.21071 9.46957 7 10 7C10.5304 7 11.0391 7.21071 11.4142 7.58579C11.7893 7.96086 12 8.46957 12 9V11" stroke="#FC4C16" stroke-width="1.25" stroke-linecap="round" stroke-linejoin="round"/>
</svg>
