<svg width="56" height="56" viewBox="0 0 56 56" fill="none" xmlns="http://www.w3.org/2000/svg">
<g filter="url(#filter0_d_3513_64899)">
<rect x="6" y="6" width="40" height="40" rx="8" fill="white"/>
</g>
<rect x="12" y="28" width="12" height="12" rx="2" fill="#0360DB"/>
<rect x="12" y="28" width="12" height="12" rx="2" fill="white" fill-opacity="0.8"/>
<rect x="28" y="12" width="12" height="12" rx="2" fill="#0360DB"/>
<rect x="28" y="12" width="12" height="12" rx="2" fill="white" fill-opacity="0.8"/>
<path d="M31.4444 19.7777H20.5556C19.6964 19.7777 19 20.4852 19 21.358V32.4197C19 33.2924 19.6964 33.9999 20.5556 33.9999H31.4444C32.3036 33.9999 33 33.2924 33 32.4197V21.358C33 20.4852 32.3036 19.7777 31.4444 19.7777Z" stroke="#0360DB" stroke-width="1.25" stroke-linecap="round" stroke-linejoin="round"/>
<path d="M29.5 18V21.5556" stroke="#0360DB" stroke-width="1.25" stroke-linecap="round" stroke-linejoin="round"/>
<path d="M22.5 18V21.5556" stroke="#0360DB" stroke-width="1.25" stroke-linecap="round" stroke-linejoin="round"/>
<path d="M19 24.2223H33" stroke="#0360DB" stroke-width="1.25" stroke-linecap="round" stroke-linejoin="round"/>
<defs>
<filter id="filter0_d_3513_64899" x="0" y="0" width="56" height="56" filterUnits="userSpaceOnUse" color-interpolation-filters="sRGB">
<feFlood flood-opacity="0" result="BackgroundImageFix"/>
<feColorMatrix in="SourceAlpha" type="matrix" values="0 0 0 0 0 0 0 0 0 0 0 0 0 0 0 0 0 0 127 0" result="hardAlpha"/>
<feOffset dx="2" dy="2"/>
<feGaussianBlur stdDeviation="4"/>
<feColorMatrix type="matrix" values="0 0 0 0 0.307543 0 0 0 0 0.307543 0 0 0 0 0.361621 0 0 0 0.08 0"/>
<feBlend mode="normal" in2="BackgroundImageFix" result="effect1_dropShadow_3513_64899"/>
<feBlend mode="normal" in="SourceGraphic" in2="effect1_dropShadow_3513_64899" result="shape"/>
</filter>
</defs>
</svg>
