<svg width="40" height="40" viewBox="0 0 40 40" fill="none" xmlns="http://www.w3.org/2000/svg">
<rect width="40" height="40" rx="8" fill="white"/>
<path d="M14 27C14 25.3431 15.3431 24 17 24H29C30.6569 24 32 25.3431 32 27V29C32 30.6569 30.6569 32 29 32H17C15.3431 32 14 30.6569 14 29V27Z" fill="#0360DB"/>
<path d="M14 27C14 25.3431 15.3431 24 17 24H29C30.6569 24 32 25.3431 32 27V29C32 30.6569 30.6569 32 29 32H17C15.3431 32 14 30.6569 14 29V27Z" fill="white" fill-opacity="0.8"/>
<path d="M17 18C19.2091 18 21 16.2091 21 14C21 11.7909 19.2091 10 17 10C14.7909 10 13 11.7909 13 14C13 16.2091 14.7909 18 17 18Z" stroke="#0360DB" stroke-width="1.25" stroke-linecap="round" stroke-linejoin="round"/>
<path d="M11 27.9999V25.9999C11 24.939 11.4214 23.9216 12.1716 23.1715C12.9217 22.4213 13.9391 21.9999 15 21.9999H19C20.0609 21.9999 21.0783 22.4213 21.8284 23.1715C22.5786 23.9216 23 24.939 23 25.9999V27.9999" stroke="#0360DB" stroke-width="1.25" stroke-linecap="round" stroke-linejoin="round"/>
<path d="M24 10.1299C24.8604 10.3502 25.623 10.8506 26.1676 11.5522C26.7122 12.2538 27.0078 13.1167 27.0078 14.0049C27.0078 14.893 26.7122 15.756 26.1676 16.4576C25.623 17.1592 24.8604 17.6596 24 17.8799" stroke="#0360DB" stroke-width="1.25" stroke-linecap="round" stroke-linejoin="round"/>
<path d="M29 28.0001V26.0001C28.9949 25.1173 28.6979 24.2609 28.1553 23.5645C27.6126 22.8681 26.8548 22.3708 26 22.1501" stroke="#0360DB" stroke-width="1.25" stroke-linecap="round" stroke-linejoin="round"/>
</svg>
