<svg width="24" height="24" viewBox="0 0 24 24" fill="none" xmlns="http://www.w3.org/2000/svg">
<path d="M8.5 6.5V5.1C8.5 5.1 8.5 4.46597 9 3.96863C9.47113 3.5 10.5 3.5 10.5 3.5H12.5C12.5 3.5 13.5257 3.5 13.9979 3.96863C14.5 4.46691 14.5 5.1 14.5 5.1V6.5M16.5 6.5V17.9C16.5 18.3243 16.3194 18.7313 15.9979 19.0314C15.6764 19.3314 15.2404 19.5 14.7857 19.5H8.21429C7.75963 19.5 7.32359 19.3314 7.0021 19.0314C6.68061 18.7313 6.5 18.3243 6.5 17.9V6.5H16.5Z" stroke="#FD693B" stroke-width="1.25" stroke-linecap="round" stroke-linejoin="round"/>
<path d="M5.5 6.5H17.5" stroke="#FD693B" stroke-width="1.25" stroke-linecap="round" stroke-linejoin="round"/>
</svg>
