<svg width="24" height="24" viewBox="0 0 24 24" fill="none" xmlns="http://www.w3.org/2000/svg">
<path d="M20 14L17.2727 11.2727H10.9091C10.668 11.2727 10.4368 11.1769 10.2663 11.0065C10.0958 10.836 10 10.6047 10 10.3636L10 4.90909C10 4.66799 10.0958 4.43675 10.2663 4.26627C10.4368 4.09578 10.668 4 10.9091 4L19.0909 4C19.332 4 19.5632 4.09578 19.7337 4.26627C19.9042 4.43675 20 4.66799 20 4.90909L20 14Z" stroke="#0360DB" stroke-width="1.25" stroke-linecap="round" stroke-linejoin="round"/>
<path d="M14 14.5455L14 16.3636C14 16.6047 13.9042 16.836 13.7337 17.0065C13.5632 17.1769 13.332 17.2727 13.0909 17.2727H6.72727L4 20L4 10.9091C4 10.668 4.09578 10.4368 4.26627 10.2663C4.43675 10.0958 4.66799 10 4.90909 10H6.72727" stroke="#0360DB" stroke-width="1.25" stroke-linecap="round" stroke-linejoin="round"/>
</svg>
