<svg width="24" height="24" viewBox="0 0 24 24" fill="none" xmlns="http://www.w3.org/2000/svg">
<path fill-rule="evenodd" clip-rule="evenodd" d="M11.5622 2.554C11.5608 2.55534 11.5594 2.5567 11.5581 2.55806C11.5579 2.55821 11.5578 2.55836 11.5576 2.55851L8.55806 5.55806C8.31398 5.80214 8.31398 6.19786 8.55806 6.44194C8.80214 6.68602 9.19786 6.68602 9.44194 6.44194L11.375 4.50888L11.375 12.25C11.375 12.5952 11.6548 12.875 12 12.875C12.3452 12.875 12.625 12.5952 12.625 12.25L12.625 4.50888L14.5581 6.44194C14.8021 6.68602 15.1979 6.68602 15.4419 6.44194C15.686 6.19786 15.686 5.80214 15.4419 5.55806L12.4419 2.55806C12.4406 2.5567 12.4392 2.55534 12.4378 2.554C12.3789 2.49609 12.3113 2.45223 12.2392 2.42242C12.1655 2.39187 12.0847 2.375 12 2.375C11.9153 2.375 11.8345 2.39187 11.7608 2.42242C11.7574 2.42381 11.7541 2.42522 11.7508 2.42666C11.6825 2.45633 11.6184 2.49878 11.5622 2.554ZM7 14.75C5.75736 14.75 4.75 15.7574 4.75 17V19C4.75 20.2426 5.75736 21.25 7 21.25H17C18.2426 21.25 19.25 20.2426 19.25 19V17C19.25 15.7574 18.2426 14.75 17 14.75H7ZM6 17C6 16.4477 6.44772 16 7 16H17C17.5523 16 18 16.4477 18 17V19C18 19.5523 17.5523 20 17 20H7C6.44772 20 6 19.5523 6 19V17Z" fill="#0360DB"/>
</svg>
