<svg width="24" height="24" viewBox="0 0 24 24" fill="none" xmlns="http://www.w3.org/2000/svg">
<path d="M12 6C12.7879 6 13.5681 6.15519 14.2961 6.45672C15.0241 6.75825 15.6855 7.20021 16.2426 7.75736C16.7998 8.31451 17.2417 8.97595 17.5433 9.7039C17.8448 10.4319 18 11.2121 18 12C18 12.7879 17.8448 13.5681 17.5433 14.2961C17.2417 15.0241 16.7998 15.6855 16.2426 16.2426C15.6855 16.7998 15.0241 17.2417 14.2961 17.5433C13.5681 17.8448 12.7879 18 12 18C11.2121 18 10.4319 17.8448 9.7039 17.5433C8.97594 17.2417 8.31451 16.7998 7.75736 16.2426C7.20021 15.6855 6.75825 15.0241 6.45672 14.2961C6.15519 13.5681 6 12.7879 6 12C6 11.2121 6.1552 10.4318 6.45672 9.7039C6.75825 8.97594 7.20021 8.31451 7.75736 7.75736C8.31451 7.20021 8.97595 6.75825 9.7039 6.45672C10.4319 6.15519 11.2121 6 12 6L12 6Z" stroke="#EDEDED" stroke-width="1.5" stroke-linecap="round" stroke-linejoin="round"/>
<path d="M12 6C13.0724 6 14.1253 6.28743 15.0489 6.83239C15.9725 7.37734 16.7333 8.15989 17.2518 9.0986C17.7704 10.0373 18.028 11.0978 17.9976 12.1698C17.9672 13.2418 17.6501 14.2861 17.0792 15.194C16.5084 16.1018 15.7046 16.8401 14.7516 17.3319C13.7986 17.8237 12.7312 18.0511 11.6605 17.9904C10.5898 17.9297 9.55489 17.5831 8.66356 16.9868C7.77223 16.3904 7.05703 15.5661 6.59239 14.5996" stroke="#9D9D9D" stroke-width="1.5" stroke-linecap="round" stroke-linejoin="round"/>
</svg>
