<svg width="24" height="24" viewBox="0 0 24 24" fill="none" xmlns="http://www.w3.org/2000/svg">
<path fill-rule="evenodd" clip-rule="evenodd" d="M23.5064 4.39052C23.2563 4.14048 22.9172 4 22.5636 4L7.8969 4L1.23024 10.6667C0.902265 11.0333 0.720947 11.508 0.720947 12C0.720947 12.492 0.902265 12.9667 1.23024 13.3333L7.8969 20L22.5636 20C22.9172 20 23.2563 19.8595 23.5064 19.6095C23.7564 19.3594 23.8969 19.0203 23.8969 18.6667L23.8969 5.33333C23.8969 4.97971 23.7564 4.64057 23.5064 4.39052ZM12.4271 8.80282C12.1342 8.50992 11.6593 8.50992 11.3664 8.80282C11.0735 9.09571 11.0735 9.57058 11.3664 9.86348L13.5027 11.9998L11.3664 14.1362C11.0735 14.429 11.0735 14.9039 11.3664 15.1968C11.6593 15.4897 12.1342 15.4897 12.4271 15.1968L14.5634 13.0605L16.6997 15.1968C16.9926 15.4897 17.4675 15.4897 17.7604 15.1968C18.0533 14.9039 18.0533 14.429 17.7604 14.1362L15.6241 11.9998L17.7604 9.86348C18.0533 9.57058 18.0533 9.09571 17.7604 8.80282C17.4675 8.50992 16.9926 8.50992 16.6997 8.80282L14.5634 10.9392L12.4271 8.80282Z" fill="#0360DB"/>
</svg>
