<svg width="24" height="24" viewBox="0 0 24 24" fill="none" xmlns="http://www.w3.org/2000/svg">
<path fill-rule="evenodd" clip-rule="evenodd" d="M3.625 10.875C3.625 6.87092 6.87092 3.625 10.875 3.625C14.879 3.625 18.1249 6.87092 18.1249 10.875C18.1249 14.879 14.879 18.1249 10.875 18.1249C6.87092 18.1249 3.625 14.879 3.625 10.875ZM10.875 2.375C6.18056 2.375 2.375 6.18056 2.375 10.875C2.375 15.5694 6.18056 19.3749 10.875 19.3749C12.997 19.3749 14.9375 18.5973 16.4269 17.3114L20.5574 21.4419C20.8015 21.686 21.1972 21.686 21.4413 21.4419C21.6854 21.1979 21.6854 20.8021 21.4413 20.5581L17.3108 16.4276C18.597 14.9381 19.3749 12.9974 19.3749 10.875C19.3749 6.18056 15.5694 2.375 10.875 2.375Z" fill="#0360DB"/>
<path fill-rule="evenodd" clip-rule="evenodd" d="M3.625 10.875C3.625 6.87092 6.87092 3.625 10.875 3.625C14.879 3.625 18.1249 6.87092 18.1249 10.875C18.1249 14.879 14.879 18.1249 10.875 18.1249C6.87092 18.1249 3.625 14.879 3.625 10.875ZM10.875 2.375C6.18056 2.375 2.375 6.18056 2.375 10.875C2.375 15.5694 6.18056 19.3749 10.875 19.3749C12.997 19.3749 14.9375 18.5973 16.4269 17.3114L20.5574 21.4419C20.8015 21.686 21.1972 21.686 21.4413 21.4419C21.6854 21.1979 21.6854 20.8021 21.4413 20.5581L17.3108 16.4276C18.597 14.9381 19.3749 12.9974 19.3749 10.875C19.3749 6.18056 15.5694 2.375 10.875 2.375Z" fill="white" fill-opacity="0.25"/>
</svg>
