<svg width="40" height="40" viewBox="0 0 40 40" fill="none" xmlns="http://www.w3.org/2000/svg">
<rect width="40" height="40" rx="8" fill="white"/>
<path d="M5 25C5 22.7909 6.79086 21 9 21H14C16.2091 21 18 22.7909 18 25V28C18 28.5523 17.5523 29 17 29H6C5.44772 29 5 28.5523 5 28V25Z" fill="#0360DB"/>
<path d="M5 25C5 22.7909 6.79086 21 9 21H14C16.2091 21 18 22.7909 18 25V28C18 28.5523 17.5523 29 17 29H6C5.44772 29 5 28.5523 5 28V25Z" fill="white" fill-opacity="0.8"/>
<path d="M11.6177 19C13.8105 19 15.5882 17.2223 15.5882 15.0294C15.5882 12.8365 13.8105 11.0588 11.6177 11.0588C9.42476 11.0588 7.64706 12.8365 7.64706 15.0294C7.64706 17.2223 9.42476 19 11.6177 19Z" fill="#0360DB"/>
<path d="M11.6177 19C13.8105 19 15.5882 17.2223 15.5882 15.0294C15.5882 12.8365 13.8105 11.0588 11.6177 11.0588C9.42476 11.0588 7.64706 12.8365 7.64706 15.0294C7.64706 17.2223 9.42476 19 11.6177 19Z" fill="white" fill-opacity="0.8"/>
<path d="M22 25C22 22.7909 23.7909 21 26 21H31C33.2091 21 35 22.7909 35 25V28C35 28.5523 34.5523 29 34 29H23C22.4477 29 22 28.5523 22 28V25Z" fill="#0360DB"/>
<path d="M22 25C22 22.7909 23.7909 21 26 21H31C33.2091 21 35 22.7909 35 25V28C35 28.5523 34.5523 29 34 29H23C22.4477 29 22 28.5523 22 28V25Z" fill="white" fill-opacity="0.8"/>
<path d="M28.3824 19C30.5753 19 32.353 17.2223 32.353 15.0294C32.353 12.8365 30.5753 11.0588 28.3824 11.0588C26.1895 11.0588 24.4118 12.8365 24.4118 15.0294C24.4118 17.2223 26.1895 19 28.3824 19Z" fill="#0360DB"/>
<path d="M28.3824 19C30.5753 19 32.353 17.2223 32.353 15.0294C32.353 12.8365 30.5753 11.0588 28.3824 11.0588C26.1895 11.0588 24.4118 12.8365 24.4118 15.0294C24.4118 17.2223 26.1895 19 28.3824 19Z" fill="white" fill-opacity="0.8"/>
<path d="M20 21.5C22.2091 21.5 24 19.7091 24 17.5C24 15.2909 22.2091 13.5 20 13.5C17.7908 13.5 16 15.2909 16 17.5C16 19.7091 17.7908 21.5 20 21.5Z" stroke="#0360DB" stroke-width="1.25" stroke-linecap="round" stroke-linejoin="round"/>
<path d="M14 31.5V29.5C14 28.4391 14.4214 27.4217 15.1716 26.6716C15.9217 25.9214 16.9391 25.5 18 25.5H22C23.0609 25.5 24.0783 25.9214 24.8284 26.6716C25.5786 27.4217 26 28.4391 26 29.5V31.5" stroke="#0360DB" stroke-width="1.25" stroke-linecap="round" stroke-linejoin="round"/>
</svg>
