<svg width="40" height="40" viewBox="0 0 40 40" fill="none" xmlns="http://www.w3.org/2000/svg">
<rect width="40" height="40" rx="8" fill="white"/>
<path d="M16 15C18.1428 16.893 20.8845 17.9549 23.728 18.0103C24.1884 18.0192 24.608 18.3098 24.7089 18.7591C25.0031 20.0694 25.0754 21.4215 24.9209 22.7592C24.7364 24.3569 24.2321 25.9013 23.438 27.3005C22.644 28.6998 21.5764 29.9254 20.2986 30.9045C19.0894 31.8311 17.7153 32.519 16.25 32.9324C16.0865 32.9785 15.9135 32.9785 15.75 32.9324C14.2847 32.519 12.9106 31.8311 11.7014 30.9045C10.4236 29.9254 9.35602 28.6998 8.56197 27.3005C7.76792 25.9013 7.26365 24.3569 7.07913 22.7592C6.92464 21.4215 6.99692 20.0694 7.29111 18.7591C7.39199 18.3098 7.81159 18.0192 8.27199 18.0103C11.1155 17.9549 13.8572 16.893 16 15Z" fill="#0360DB"/>
<path d="M16 15C18.1428 16.893 20.8845 17.9549 23.728 18.0103C24.1884 18.0192 24.608 18.3098 24.7089 18.7591C25.0031 20.0694 25.0754 21.4215 24.9209 22.7592C24.7364 24.3569 24.2321 25.9013 23.438 27.3005C22.644 28.6998 21.5764 29.9254 20.2986 30.9045C19.0894 31.8311 17.7153 32.519 16.25 32.9324C16.0865 32.9785 15.9135 32.9785 15.75 32.9324C14.2847 32.519 12.9106 31.8311 11.7014 30.9045C10.4236 29.9254 9.35602 28.6998 8.56197 27.3005C7.76792 25.9013 7.26365 24.3569 7.07913 22.7592C6.92464 21.4215 6.99692 20.0694 7.29111 18.7591C7.39199 18.3098 7.81159 18.0192 8.27199 18.0103C11.1155 17.9549 13.8572 16.893 16 15Z" fill="white" fill-opacity="0.8"/>
<path d="M16.9883 20L18.9883 22L22.9883 18" stroke="#0360DB" stroke-width="1.25" stroke-linecap="round" stroke-linejoin="round"/>
<path d="M20 11C22.3392 13.0666 25.3922 14.1426 28.5122 14C28.9664 15.543 29.1054 17.1615 28.9209 18.7592C28.7364 20.3569 28.2321 21.9013 27.438 23.3005C26.644 24.6998 25.5764 25.9254 24.2986 26.9045C23.0208 27.8836 21.559 28.5962 20 29C18.441 28.5962 16.9792 27.8836 15.7014 26.9045C14.4236 25.9254 13.356 24.6998 12.562 23.3005C11.7679 21.9013 11.2636 20.3569 11.0791 18.7592C10.8946 17.1615 11.0336 15.543 11.4878 14C14.6078 14.1426 17.6608 13.0666 20 11" stroke="#0360DB" stroke-width="1.25" stroke-linecap="round" stroke-linejoin="round"/>
</svg>
