<svg width="24" height="24" viewBox="0 0 24 24" fill="none" xmlns="http://www.w3.org/2000/svg">
<path fill-rule="evenodd" clip-rule="evenodd" d="M23.5061 4.39052C23.2561 4.14048 22.9169 4 22.5633 4H7.89666L1.22999 10.6667C0.902021 11.0333 0.720703 11.508 0.720703 12C0.720703 12.492 0.902021 12.9667 1.22999 13.3333L7.89666 20H22.5633C22.9169 20 23.2561 19.8595 23.5061 19.6095C23.7562 19.3594 23.8967 19.0203 23.8967 18.6667V5.33333C23.8967 4.97971 23.7562 4.64057 23.5061 4.39052ZM12.4268 8.80282C12.1339 8.50992 11.659 8.50992 11.3662 8.80282C11.0733 9.09571 11.0733 9.57058 11.3662 9.86348L13.5025 11.9998L11.3662 14.1362C11.0733 14.429 11.0733 14.9039 11.3662 15.1968C11.659 15.4897 12.1339 15.4897 12.4268 15.1968L14.5632 13.0605L16.6995 15.1968C16.9924 15.4897 17.4673 15.4897 17.7601 15.1968C18.053 14.9039 18.053 14.429 17.7601 14.1362L15.6238 11.9998L17.7601 9.86348C18.053 9.57058 18.053 9.09571 17.7601 8.80282C17.4673 8.50992 16.9924 8.50992 16.6995 8.80282L14.5632 10.9392L12.4268 8.80282Z" fill="#9D9D9D"/>
</svg>
