<svg width="40" height="40" viewBox="0 0 40 40" fill="none" xmlns="http://www.w3.org/2000/svg">
<rect width="40" height="40" rx="8" fill="white"/>
<path d="M9 29C9 26.7909 10.7909 25 13 25H20C22.2091 25 24 26.7909 24 29V31C24 31.5523 23.5523 32 23 32H10C9.44772 32 9 31.5523 9 31V29Z" fill="#0360DB"/>
<path d="M9 29C9 26.7909 10.7909 25 13 25H20C22.2091 25 24 26.7909 24 29V31C24 31.5523 23.5523 32 23 32H10C9.44772 32 9 31.5523 9 31V29Z" fill="white" fill-opacity="0.8"/>
<path d="M16.5 23C18.9853 23 21 20.9853 21 18.5C21 16.0147 18.9853 14 16.5 14C14.0147 14 12 16.0147 12 18.5C12 20.9853 14.0147 23 16.5 23Z" fill="#0360DB"/>
<path d="M16.5 23C18.9853 23 21 20.9853 21 18.5C21 16.0147 18.9853 14 16.5 14C14.0147 14 12 16.0147 12 18.5C12 20.9853 14.0147 23 16.5 23Z" fill="white" fill-opacity="0.8"/>
<path d="M27 28V26.3333C27 25.4493 26.6067 24.6014 25.9065 23.9763C25.2064 23.3512 24.2568 23 23.2667 23H16.7333C15.7432 23 14.7936 23.3512 14.0935 23.9763C13.3933 24.6014 13 25.4493 13 26.3333V28" stroke="#0360DB" stroke-width="1.25" stroke-linecap="round" stroke-linejoin="round"/>
<path d="M20 20C22.2091 20 24 18.2091 24 16C24 13.7909 22.2091 12 20 12C17.7909 12 16 13.7909 16 16C16 18.2091 17.7909 20 20 20Z" stroke="#0360DB" stroke-width="1.25" stroke-linecap="round" stroke-linejoin="round"/>
</svg>
