<svg width="56" height="56" viewBox="0 0 56 56" fill="none" xmlns="http://www.w3.org/2000/svg">
<path d="M26.5 34C26.5 33.1716 27.1716 32.5 28 32.5C28.8284 32.5 29.5 33.1716 29.5 34C29.5 34.8284 28.8284 35.5 28 35.5C27.1716 35.5 26.5 34.8284 26.5 34Z" fill="#9D9D9D"/>
<path d="M29.5 28C29.5 28.8284 28.8284 29.5 28 29.5C27.1716 29.5 26.5 28.8284 26.5 28C26.5 27.1716 27.1716 26.5 28 26.5C28.8284 26.5 29.5 27.1716 29.5 28Z" fill="#9D9D9D"/>
<path d="M26.5 22C26.5 21.1716 27.1716 20.5 28 20.5C28.8284 20.5 29.5 21.1716 29.5 22C29.5 22.8284 28.8284 23.5 28 23.5C27.1716 23.5 26.5 22.8284 26.5 22Z" fill="#9D9D9D"/>
</svg>
