<svg width="24" height="24" viewBox="0 0 24 24" fill="none" xmlns="http://www.w3.org/2000/svg">
<path d="M4 18L4 20C4 20.5523 4.51167 21 5.14286 21L18.8571 21C19.4883 21 20 20.5523 20 20L20 18C20 17.4477 19.4883 17 18.8571 17L5.14286 17C4.51167 17 4 17.4477 4 18Z" stroke="#0360DB" stroke-width="1.25" stroke-linecap="round" stroke-linejoin="round"/>
<path d="M4 18L4 20C4 20.5523 4.51167 21 5.14286 21L18.8571 21C19.4883 21 20 20.5523 20 20L20 18C20 17.4477 19.4883 17 18.8571 17L5.14286 17C4.51167 17 4 17.4477 4 18Z" stroke="black" stroke-opacity="0.25" stroke-width="1.25" stroke-linecap="round" stroke-linejoin="round"/>
<path d="M4 11L4 13C4 13.5523 4.51167 14 5.14286 14L18.8571 14C19.4883 14 20 13.5523 20 13L20 11C20 10.4477 19.4883 10 18.8571 10L5.14286 10C4.51167 10 4 10.4477 4 11Z" stroke="#0360DB" stroke-width="1.25" stroke-linecap="round" stroke-linejoin="round"/>
<path d="M4 11L4 13C4 13.5523 4.51167 14 5.14286 14L18.8571 14C19.4883 14 20 13.5523 20 13L20 11C20 10.4477 19.4883 10 18.8571 10L5.14286 10C4.51167 10 4 10.4477 4 11Z" stroke="black" stroke-opacity="0.25" stroke-width="1.25" stroke-linecap="round" stroke-linejoin="round"/>
<path d="M4 4L4 6C4 6.55228 4.51167 7 5.14286 7L18.8571 7C19.4883 7 20 6.55228 20 6L20 4C20 3.44771 19.4883 3 18.8571 3L5.14286 3C4.51167 3 4 3.44772 4 4Z" stroke="#0360DB" stroke-width="1.25" stroke-linecap="round" stroke-linejoin="round"/>
<path d="M4 4L4 6C4 6.55228 4.51167 7 5.14286 7L18.8571 7C19.4883 7 20 6.55228 20 6L20 4C20 3.44771 19.4883 3 18.8571 3L5.14286 3C4.51167 3 4 3.44772 4 4Z" stroke="black" stroke-opacity="0.25" stroke-width="1.25" stroke-linecap="round" stroke-linejoin="round"/>
</svg>
