<svg width="24" height="24" viewBox="0 0 24 24" fill="none" xmlns="http://www.w3.org/2000/svg">
<path d="M11.5919 2.57649C11.7912 2.29501 12.2088 2.29501 12.4081 2.57649L15.4877 6.92682C15.5511 7.01644 15.6423 7.08268 15.7471 7.11532L20.8362 8.69985C21.1655 8.80238 21.2945 9.19961 21.0884 9.4761L17.9026 13.7493C17.837 13.8373 17.8022 13.9445 17.8035 14.0543L17.8692 19.3839C17.8734 19.7288 17.5355 19.9743 17.2088 19.8637L12.1604 18.1543C12.0563 18.1191 11.9436 18.1191 11.8396 18.1543L6.79116 19.8637C6.4645 19.9743 6.1266 19.7287 6.13084 19.3839L6.19647 14.0543C6.19782 13.9445 6.163 13.8373 6.09737 13.7493L2.9116 9.4761C2.70547 9.19961 2.83454 8.80238 3.16382 8.69985L8.25287 7.11532C8.35771 7.08268 8.44888 7.01644 8.51232 6.92682L11.5919 2.57649Z" fill="#FFC123"/>
</svg>
