<svg width="24" height="24" viewBox="0 0 24 24" fill="none" xmlns="http://www.w3.org/2000/svg">
<path d="M4 5.75C4 5.33579 4.33579 5 4.75 5L19.25 5C19.6642 5 20 5.33579 20 5.75C20 6.16421 19.6642 6.5 19.25 6.5L4.75 6.5C4.33579 6.5 4 6.16421 4 5.75Z" fill="#0360DB"/>
<path d="M4 11.75C4 11.3358 4.33579 11 4.75 11L19.25 11C19.6642 11 20 11.3358 20 11.75C20 12.1642 19.6642 12.5 19.25 12.5L4.75 12.5C4.33579 12.5 4 12.1642 4 11.75Z" fill="#0360DB"/>
<path d="M4 17.75C4 17.3358 4.33579 17 4.75 17L19.25 17C19.6642 17 20 17.3358 20 17.75C20 18.1642 19.6642 18.5 19.25 18.5L4.75 18.5C4.33579 18.5 4 18.1642 4 17.75Z" fill="#0360DB"/>
</svg>
