<svg width="40" height="40" viewBox="0 0 40 40" fill="none" xmlns="http://www.w3.org/2000/svg">
<rect width="40" height="40" rx="8" fill="#0360DB"/>
<rect width="40" height="40" rx="8" fill="white" fill-opacity="0.95"/>
<rect x="9" y="10" width="14" height="7" rx="1" fill="#0360DB"/>
<rect x="9" y="10" width="14" height="7" rx="1" fill="white" fill-opacity="0.8"/>
<rect x="9" y="19" width="14" height="7" rx="1" fill="#0360DB"/>
<rect x="9" y="19" width="14" height="7" rx="1" fill="white" fill-opacity="0.8"/>
<rect x="9" y="28" width="14" height="7" rx="1" fill="#0360DB"/>
<rect x="9" y="28" width="14" height="7" rx="1" fill="white" fill-opacity="0.8"/>
<path d="M13 9C13 8.44772 13.4477 8 14 8H20H26C26.5523 8 27 8.44772 27 9V11V13C27 13.5523 26.5523 14 26 14H14C13.4477 14 13 13.5523 13 13V9Z" stroke="#0360DB" stroke-width="1.25" stroke-linecap="round" stroke-linejoin="round"/>
<path d="M13 18C13 17.4477 13.4477 17 14 17H20H26C26.5523 17 27 17.4477 27 18V20V22C27 22.5523 26.5523 23 26 23H14C13.4477 23 13 22.5523 13 22V18Z" stroke="#0360DB" stroke-width="1.25" stroke-linecap="round" stroke-linejoin="round"/>
<path d="M13 27C13 26.4477 13.4477 26 14 26H20H26C26.5523 26 27 26.4477 27 27V29V31C27 31.5523 26.5523 32 26 32H14C13.4477 32 13 31.5523 13 31V27Z" stroke="#0360DB" stroke-width="1.25" stroke-linecap="round" stroke-linejoin="round"/>
</svg>
