<svg width="40" height="40" viewBox="0 0 40 40" fill="none" xmlns="http://www.w3.org/2000/svg">
<rect width="40" height="40" rx="8" fill="white"/>
<rect x="17" y="23" width="18" height="12" rx="2" fill="#0360DB"/>
<rect x="17" y="23" width="18" height="12" rx="2" fill="white" fill-opacity="0.8"/>
<rect x="5" y="5" width="18" height="12" rx="2" fill="#0360DB"/>
<rect x="5" y="5" width="18" height="12" rx="2" fill="white" fill-opacity="0.8"/>
<path d="M11 17L20 23L29 17L20 11L11 17Z" stroke="#0360DB" stroke-width="1.25" stroke-linecap="round" stroke-linejoin="round"/>
<path d="M29 17V27C29 27.5304 28.7893 28.0391 28.4142 28.4142C28.0391 28.7893 27.5304 29 27 29H13C12.4696 29 11.9609 28.7893 11.5858 28.4142C11.2107 28.0391 11 27.5304 11 27V17" stroke="#0360DB" stroke-width="1.25" stroke-linecap="round" stroke-linejoin="round"/>
<path d="M11 27L17 21" stroke="#0360DB" stroke-width="1.25" stroke-linecap="round" stroke-linejoin="round"/>
<path d="M23 21L29 27" stroke="#0360DB" stroke-width="1.25" stroke-linecap="round" stroke-linejoin="round"/>
</svg>
